<mxfile host="65bd71144e">
    <diagram id="fGcPDHv5pipkgs8YL2U2" name="Page-1">
        <mxGraphModel dx="662" dy="563" grid="1" gridSize="10" guides="1" tooltips="1" connect="1" arrows="1" fold="1" page="1" pageScale="1" pageWidth="850" pageHeight="1100" math="0" shadow="0">
            <root>
                <mxCell id="0"/>
                <mxCell id="1" parent="0"/>
                <mxCell id="3" value="&lt;h4&gt;&lt;br&gt;&lt;/h4&gt;" style="shape=ext;double=1;rounded=1;whiteSpace=wrap;html=1;verticalAlign=top;fontStyle=1;horizontal=1;fillColor=#ffcc99;strokeColor=#36393d;" vertex="1" parent="1">
                    <mxGeometry x="405" y="255" width="320" height="240" as="geometry"/>
                </mxCell>
                <mxCell id="2" value="&lt;div&gt;&lt;br&gt;&lt;/div&gt;&lt;div&gt;&lt;br&gt;&lt;/div&gt;" style="shape=ext;double=1;rounded=1;whiteSpace=wrap;html=1;fillColor=#ffff88;strokeColor=#36393d;verticalAlign=top;strokeWidth=0;" vertex="1" parent="1">
                    <mxGeometry x="420" y="280" width="290" height="190" as="geometry"/>
                </mxCell>
                <mxCell id="12" value="&lt;h4 style=&quot;color: rgb(63, 63, 63); scrollbar-color: rgb(226, 226, 226) rgb(251, 251, 251); text-wrap-mode: wrap;&quot;&gt;&lt;font style=&quot;color: rgb(63, 63, 63); scrollbar-color: rgb(226, 226, 226) rgb(251, 251, 251);&quot; face=&quot;Courier New&quot;&gt;Host&lt;/font&gt;&lt;/h4&gt;" style="text;html=1;align=center;verticalAlign=middle;resizable=0;points=[];autosize=1;strokeColor=none;fillColor=none;fontSize=14;" vertex="1" parent="1">
                    <mxGeometry x="530" y="230" width="60" height="70" as="geometry"/>
                </mxCell>
                <mxCell id="13" value="&lt;b style=&quot;color: rgb(63, 63, 63); scrollbar-color: rgb(226, 226, 226) rgb(251, 251, 251);&quot;&gt;Docker network: app_net&lt;br style=&quot;color: rgb(63, 63, 63); scrollbar-color: rgb(226, 226, 226) rgb(251, 251, 251);&quot;&gt;&lt;/b&gt;&lt;h2 data-start=&quot;220&quot; data-end=&quot;258&quot; style=&quot;color: rgb(63, 63, 63); scrollbar-color: rgb(226, 226, 226) rgb(251, 251, 251);&quot;&gt;&lt;/h2&gt;&lt;div style=&quot;color: rgb(63, 63, 63); scrollbar-color: rgb(226, 226, 226) rgb(251, 251, 251);&quot;&gt;&lt;br style=&quot;color: rgb(63, 63, 63); scrollbar-color: rgb(226, 226, 226) rgb(251, 251, 251); text-wrap-mode: wrap;&quot;&gt;&lt;/div&gt;" style="text;html=1;align=center;verticalAlign=middle;resizable=0;points=[];autosize=1;strokeColor=none;fillColor=none;fontSize=11;" vertex="1" parent="1">
                    <mxGeometry x="490" y="280" width="150" height="50" as="geometry"/>
                </mxCell>
                <mxCell id="11" value="" style="shape=ext;double=1;rounded=1;whiteSpace=wrap;html=1;textShadow=0;fillColor=#ffcccc;strokeColor=#36393d;" vertex="1" parent="1">
                    <mxGeometry x="441" y="305" width="260" height="150" as="geometry"/>
                </mxCell>
                <mxCell id="14" value="&lt;div&gt;&lt;font color=&quot;#000000&quot;&gt;app (Flask)&lt;/font&gt;&lt;span style=&quot;background-color: transparent;&quot;&gt;:5000&lt;/span&gt;&lt;/div&gt;&lt;div&gt;&lt;font color=&quot;#000000&quot;&gt;Healthcheck /health&lt;/font&gt;&lt;/div&gt;&lt;div&gt;&lt;br&gt;&lt;/div&gt;" style="text;html=1;align=center;verticalAlign=middle;resizable=0;points=[];autosize=1;strokeColor=none;fillColor=none;fontSize=11;" vertex="1" parent="1">
                    <mxGeometry x="500" y="304" width="120" height="50" as="geometry"/>
                </mxCell>
                <mxCell id="15" value="" style="shape=ext;double=1;rounded=1;whiteSpace=wrap;html=1;fillColor=#fff2cc;strokeColor=#d6b656;" vertex="1" parent="1">
                    <mxGeometry x="455" y="340" width="230" height="105" as="geometry"/>
                </mxCell>
                <mxCell id="16" value="&lt;div&gt;&lt;font color=&quot;#000000&quot;&gt;db (nginx)&lt;/font&gt;&lt;span style=&quot;color: rgb(63, 63, 63); background-color: transparent;&quot;&gt;:80&lt;/span&gt;&lt;/div&gt;&lt;div&gt;&lt;br&gt;&lt;/div&gt;" style="text;html=1;align=center;verticalAlign=middle;resizable=0;points=[];autosize=1;strokeColor=none;fillColor=none;fontSize=10;" vertex="1" parent="1">
                    <mxGeometry x="520" y="376" width="80" height="40" as="geometry"/>
                </mxCell>
                <mxCell id="17" value="" style="shape=ext;double=1;rounded=1;whiteSpace=wrap;html=1;fillColor=#d5e8d4;strokeColor=#82b366;" vertex="1" parent="1">
                    <mxGeometry x="465" y="505" width="200" height="80" as="geometry"/>
                </mxCell>
                <mxCell id="18" value="&lt;div&gt;&lt;font style=&quot;font-size: 9px;&quot; color=&quot;#000000&quot;&gt;named volume&lt;/font&gt;&lt;/div&gt;&lt;div&gt;&lt;font style=&quot;font-size: 9px;&quot; color=&quot;#000000&quot;&gt;/usr/share/nginx/html&lt;/font&gt;&lt;/div&gt;&lt;div&gt;&lt;br&gt;&lt;/div&gt;" style="text;html=1;align=center;verticalAlign=middle;resizable=0;points=[];autosize=1;strokeColor=none;fillColor=none;" vertex="1" parent="1">
                    <mxGeometry x="520" y="515" width="110" height="60" as="geometry"/>
                </mxCell>
                <mxCell id="35" style="edgeStyle=none;html=1;exitX=1;exitY=0.75;exitDx=0;exitDy=0;" edge="1" parent="1" source="28" target="15">
                    <mxGeometry relative="1" as="geometry"/>
                </mxCell>
                <mxCell id="20" value="" style="shape=ext;double=1;rounded=1;whiteSpace=wrap;html=1;fillColor=#b0e3e6;strokeColor=#0e8088;" vertex="1" parent="1">
                    <mxGeometry x="220" y="340" width="120" height="80" as="geometry"/>
                </mxCell>
                <mxCell id="21" value="User" style="text;html=1;align=center;verticalAlign=middle;resizable=0;points=[];autosize=1;strokeColor=none;fillColor=none;" vertex="1" parent="1">
                    <mxGeometry x="255" y="365" width="50" height="30" as="geometry"/>
                </mxCell>
                <mxCell id="36" style="edgeStyle=none;html=1;exitX=1;exitY=0.25;exitDx=0;exitDy=0;entryX=0;entryY=0.347;entryDx=0;entryDy=0;entryPerimeter=0;" edge="1" parent="1" source="37" target="11">
                    <mxGeometry relative="1" as="geometry"/>
                </mxCell>
                <mxCell id="38" value="" style="edgeStyle=none;html=1;exitX=1;exitY=0.25;exitDx=0;exitDy=0;entryX=0;entryY=0.347;entryDx=0;entryDy=0;entryPerimeter=0;" edge="1" parent="1" source="20" target="37">
                    <mxGeometry relative="1" as="geometry">
                        <mxPoint x="340" y="360" as="sourcePoint"/>
                        <mxPoint x="441" y="357" as="targetPoint"/>
                    </mxGeometry>
                </mxCell>
                <mxCell id="37" value="HTTP :5002" style="text;html=1;align=center;verticalAlign=middle;resizable=0;points=[];autosize=1;strokeColor=none;fillColor=none;fontSize=8;" vertex="1" parent="1">
                    <mxGeometry x="346" y="340" width="70" height="20" as="geometry"/>
                </mxCell>
                <mxCell id="40" value="" style="edgeStyle=none;html=1;exitX=1;exitY=0.75;exitDx=0;exitDy=0;" edge="1" parent="1" source="20" target="28">
                    <mxGeometry relative="1" as="geometry">
                        <mxPoint x="340" y="400" as="sourcePoint"/>
                        <mxPoint x="455" y="396" as="targetPoint"/>
                    </mxGeometry>
                </mxCell>
                <mxCell id="28" value="HTTP :8080" style="text;html=1;align=center;verticalAlign=middle;resizable=0;points=[];autosize=1;strokeColor=none;fillColor=none;fontSize=8;" vertex="1" parent="1">
                    <mxGeometry x="347" y="404" width="70" height="20" as="geometry"/>
                </mxCell>
                <mxCell id="42" style="edgeStyle=none;html=1;exitX=0.75;exitY=0;exitDx=0;exitDy=0;entryX=0.852;entryY=0.067;entryDx=0;entryDy=0;entryPerimeter=0;" edge="1" parent="1" source="11" target="15">
                    <mxGeometry relative="1" as="geometry">
                        <Array as="points">
                            <mxPoint x="665" y="330"/>
                        </Array>
                    </mxGeometry>
                </mxCell>
                <mxCell id="43" style="edgeStyle=none;html=1;entryX=0.565;entryY=0.962;entryDx=0;entryDy=0;entryPerimeter=0;dashed=1;" edge="1" parent="1" source="18" target="15">
                    <mxGeometry relative="1" as="geometry">
                        <Array as="points">
                            <mxPoint x="605" y="480"/>
                        </Array>
                    </mxGeometry>
                </mxCell>
                <mxCell id="44" value="&lt;font style=&quot;font-size: 8px;&quot;&gt;&lt;b&gt;HTTP :80&lt;/b&gt;&lt;/font&gt;" style="text;html=1;align=center;verticalAlign=middle;resizable=0;points=[];autosize=1;strokeColor=none;fillColor=none;rotation=50;" vertex="1" parent="1">
                    <mxGeometry x="616" y="307" width="60" height="30" as="geometry"/>
                </mxCell>
            </root>
        </mxGraphModel>
    </diagram>
</mxfile>